<?xml version="1.0" encoding="UTF-8"?>
<svg width="200px" height="200px" viewBox="0 0 200 200" version="1.1" xmlns="http://www.w3.org/2000/svg" xmlns:xlink="http://www.w3.org/1999/xlink">
    <!-- Generator: Sketch 49 (51002) - http://www.bohemiancoding.com/sketch -->
    <title>Group 5</title>
    <desc>Created with Sketch.</desc>
    <defs></defs>
    <g id="Page-1" stroke="none" stroke-width="1" fill="none" fill-rule="evenodd">
        <g id="Desktop-HD" transform="translate(-1160.000000, -522.000000)">
            <g id="Group-6" transform="translate(1160.000000, 522.000000)">
                <g id="Group-5">
                    <circle id="Oval-4-Copy" fill-opacity="0.01" fill="#F9DF4B" cx="100" cy="100" r="100"></circle>
                    <path d="M107.994916,97.6905191 L120.522787,94.3219597 C125.272902,93.0447241 130.264204,92.9550736 135.057122,94.0609036 L197.031794,108.359803 C197.569941,108.483965 197.905542,109.020873 197.78138,109.55902 C197.66649,110.056981 197.194629,110.388193 196.687262,110.327013 L108.134862,99.6490267 C107.586549,99.5829091 107.195653,99.0848148 107.26177,98.536502 C107.310628,98.131324 107.600801,97.7964907 107.994916,97.6905191 Z" id="Path-4" fill="#FFFFFF"></path>
                    <path d="M28.2634387,140.682175 L40.7913099,137.313616 C45.5414247,136.03638 50.5327266,135.94673 55.3256444,137.05256 L117.300317,151.351459 C117.838464,151.475622 118.174065,152.012529 118.049903,152.550676 C117.935012,153.048637 117.463152,153.379849 116.955785,153.318669 L28.4033844,142.640683 C27.8550716,142.574565 27.4641752,142.076471 27.5302929,141.528158 C27.5791508,141.12298 27.869324,140.788147 28.2634387,140.682175 Z" id="Path-4-Copy" fill="#FFFFFF" transform="translate(72.799362, 144.805267) rotate(-240.000000) translate(-72.799362, -144.805267) "></path>
                    <path d="M30.8973109,50.1368624 L43.4251821,46.768303 C48.1752969,45.4910674 53.1665988,45.4014169 57.9595166,46.5072468 L119.934189,60.8061463 C120.472336,60.9303085 120.807937,61.4672162 120.683775,62.0053632 C120.568884,62.5033239 120.097024,62.8345361 119.589657,62.7733558 L31.0372566,52.09537 C30.4889438,52.0292524 30.0980474,51.5311581 30.1641651,50.9828453 C30.213023,50.5776673 30.5031962,50.242834 30.8973109,50.1368624 Z" id="Path-4-Copy-2" fill="#FFFFFF" transform="translate(75.433234, 54.259954) rotate(-120.000000) translate(-75.433234, -54.259954) "></path>
                </g>
            </g>
        </g>
    </g>
</svg>