<?xml version="1.0" encoding="UTF-8"?>
<svg width="145px" height="145px" viewBox="0 0 145 145" version="1.1" xmlns="http://www.w3.org/2000/svg" xmlns:xlink="http://www.w3.org/1999/xlink">
    <!-- Generator: Sketch 49 (51002) - http://www.bohemiancoding.com/sketch -->
    <title>Group 12</title>
    <desc>Created with Sketch.</desc>
    <defs></defs>
    <g id="Page-1" stroke="none" stroke-width="1" fill="none" fill-rule="evenodd">
        <g id="Desktop-HD" transform="translate(-1152.000000, -595.000000)">
            <g id="Group-12" transform="translate(1152.000000, 595.000000)">
                <path d="M144.344913,72.5043279 C144.276249,112.249411 112.000851,144.413515 72.2557677,144.344891 C32.5106844,144.276266 0.346548419,112.0009 0.415133544,72.2558161 C0.483718669,32.5107327 32.7590531,0.34656469 72.5041366,0.415110342 C112.239826,0.506483125 144.390718,32.7685594 144.344913,72.5043279 Z" id="Shape-Copy-5" fill-opacity="0.01" fill="#F9DF4B" fill-rule="nonzero"></path>
                <path d="M111.28,70 C123.311431,70.0388542 133.58535,78.6946297 135.665655,90.5449117 C137.74596,102.395194 131.034512,114.032733 119.7357,118.167187 C108.436889,122.301642 95.7994022,117.744253 89.74,107.35 C89.51,106.94 89.29,106.53 89.07,106.11 C87.58,102.94 82.3,96.73 72.27,96.71 C62.24,96.69 56.95,102.87 55.45,106.04 C55.23,106.46 55,106.87 54.76,107.27 C48.6630243,117.650726 35.999884,122.165179 24.7110268,117.982562 C13.4221696,113.799946 6.75756033,102.124399 8.8962557,90.2770971 C11.0349511,78.4297953 21.3612391,69.8214746 33.4,69.85 L36.61,69.85 C41.54,69.74 46.59,67.68 50.84,60.74 C54.7620087,54.4884684 54.7930257,46.5519958 50.92,40.27 C44.9013912,29.8183097 47.2601354,16.553564 56.5129113,8.81743962 C65.7656872,1.08131521 79.2384878,1.1095141 88.458799,8.8843031 C97.6791102,16.6590921 99.9823072,29.9335953 93.92,40.36 C90.0272482,46.6281239 90.0272482,54.5618761 93.92,60.83 C98.12,67.78 103.19,69.86 108.12,70 C109.28,70 110.28,70 111.28,70 Z M89.7599746,72.4100264 C89.7710367,62.8135881 82.0063939,55.0220935 72.4099746,55.0000264 C62.8112867,54.9834722 55.0165902,62.7513213 55.0000264,72.3500092 C54.9834627,81.9486972 62.7513041,89.7434014 72.349992,89.7599747 C81.9486799,89.7765479 89.7433918,82.0087143 89.7599746,72.4100264 Z M45.9630985,107.367952 C49.3387591,104.014795 51.2441136,99.4579921 51.26,94.7 C51.281981,84.8083174 43.2849366,76.7696398 33.3932732,76.7402578 C23.5016097,76.7108758 15.4569511,84.7019035 15.4201681,94.5935422 C15.3833852,104.485181 23.3683916,112.535816 33.26,112.58 C38.0179919,112.59594 42.5874379,110.721108 45.9630985,107.367952 Z M72.34,45.76 C82.2418556,45.78768 90.2959077,37.7917962 90.34,27.89 C90.3675045,17.9970329 82.3729232,9.95334983 72.4799731,9.92027901 C62.587023,9.88720819 54.5388431,17.8772624 54.5002059,27.7701923 C54.4615688,37.6631222 62.4470934,45.7157966 72.34,45.76 Z M111.13,112.58 C121.035744,112.607668 129.091409,104.605707 129.13,94.7 C129.151981,84.8083174 121.154937,76.7696398 111.263273,76.7402578 C101.37161,76.7108758 93.3269511,84.7019035 93.2901681,94.5935422 C93.2533852,104.485181 101.238392,112.535816 111.13,112.58 Z" id="Combined-Shape" fill="#FFFFFF" fill-rule="nonzero"></path>
                <path d="M72.4783017,10.4202762 C82.0950814,10.4524238 89.8665137,18.2714475 89.8400031,27.8881917 C89.7969141,37.5139788 81.9672963,45.2869106 72.3413977,45.260002 C62.7253572,45.2170349 54.962643,37.3890446 55.0002021,27.7721451 C55.0377612,18.1552456 62.8613826,10.3881281 72.4783017,10.4202762 Z M81.4249884,27.8601679 C81.4361143,22.8868683 77.4134822,18.8461908 72.4401827,18.8350565 C67.4668832,18.8239223 63.4261989,22.8465476 63.4150564,27.8198471 C63.4039138,32.7931466 67.4265324,36.8338376 72.3998319,36.8449885 C77.357244,36.817694 81.3754887,32.817408 81.4249884,27.8601679 Z" id="Combined-Shape" fill="#FFFFFF" fill-rule="nonzero"></path>
                <path d="M33.391788,77.2402556 C43.0073633,77.2688175 50.7812185,85.0830506 50.7600019,94.6986097 C50.7444846,99.3238924 48.8922422,103.753582 45.6107296,107.013218 C42.3291509,110.272919 37.8870585,112.095498 33.261675,112.080003 C23.6466185,112.037054 15.8844081,104.211046 15.9201647,94.5954014 C15.9559213,84.9797571 23.7761196,77.2116935 33.391788,77.2402556 Z M42.4799875,94.6807081 C42.4924106,90.9820922 40.2745264,87.6405623 36.8614088,86.2155914 C33.4482913,84.7906204 29.5128034,85.5631275 26.8916149,88.1725881 C24.2704263,90.7820487 23.4802791,94.7140329 24.8899304,98.1335061 C26.2995817,101.552979 29.6311324,103.785826 33.3297668,103.789988 C35.751129,103.795423 38.0754769,102.83875 39.7914775,101.130428 C41.5074781,99.4221049 42.4745645,97.1020704 42.4799875,94.6807081 Z" id="Combined-Shape" fill="#FFFFFF" fill-rule="nonzero"></path>
                <path d="M111.261788,77.2402556 C120.877317,77.2688174 128.651143,85.0829752 128.630002,94.6984705 C128.592261,104.328059 120.761075,112.106899 111.131397,112.080002 C101.516619,112.037054 93.7544081,104.211046 93.7901647,94.5954014 C93.8259213,84.9797571 101.64612,77.2116935 111.261788,77.2402556 Z M120.319974,94.6805998 C120.336704,89.6546818 116.279973,85.5647022 111.254086,85.5404073 C106.228199,85.5161123 102.132118,89.5666816 102.100258,94.5925264 C102.068398,99.6183713 106.112797,103.720545 111.138588,103.75997 C113.560941,103.776252 115.890255,102.82817 117.612699,101.124865 C119.335142,99.4215594 120.30919,97.1029836 120.319974,94.6805998 Z" id="Combined-Shape" fill="#FFFFFF" fill-rule="nonzero"></path>
                <path d="M80.9249897,27.859048 C80.8782361,32.5427716 77.0848389,36.319215 72.4009529,36.3449885 C67.7037948,36.3344568 63.9045312,32.5181242 63.9150551,27.8209661 C63.9255789,23.1238079 67.7419051,19.3245379 72.4390633,19.3350539 C77.1362215,19.34557 80.9354979,23.1618898 80.9249897,27.859048 Z M72.4368245,20.3350514 C68.291949,20.3257719 64.924339,23.6783311 64.9150525,27.8232065 C64.905766,31.968082 68.2583196,35.3356976 72.3993212,35.3449973 C76.5324509,35.3222412 79.8826934,31.987611 79.9249963,27.8548739 C79.9332203,23.7108863 76.5810543,20.3443296 72.4368245,20.3350514 Z" id="Shape-Copy" fill="#FFFFFF" fill-rule="nonzero"></path>
                <path d="M39.3713211,100.708384 C37.766924,102.305603 35.5937447,103.200057 33.3304202,103.194976 C29.8725607,103.191084 26.7578884,101.103593 25.440003,97.9067215 C24.1221177,94.7098503 24.8608276,91.0338317 27.3113811,88.5942426 C29.7619347,86.1546535 33.4412289,85.4324353 36.6321582,86.7646431 C39.8230015,88.0968149 41.8964794,91.2206842 41.8849778,94.6784151 C41.8798336,96.9421982 40.975652,99.1112318 39.3713211,100.708384 Z M40.8849809,94.6758957 C40.8952376,91.6221571 39.0643913,88.8637499 36.246889,87.6874473 C33.4293867,86.5111447 30.1806717,87.1488434 28.0169007,89.302933 C25.8531297,91.4570227 25.2008693,94.7028454 26.3645256,97.5255943 C27.5281819,100.348343 30.2783514,102.191541 33.3321052,102.194978 C35.3307726,102.199464 37.2493615,101.409797 38.6658015,99.9996941 C40.0822415,98.5895915 40.8805046,96.6745631 40.8849809,94.6758957 Z" id="Shape-Copy-3" fill="#FFFFFF" fill-rule="nonzero"></path>
                <path d="M119.819977,94.6789313 C119.809783,96.9687757 118.889256,99.1599544 117.261454,100.769669 C115.633652,102.379384 113.432326,103.275373 111.14251,103.259981 C106.392559,103.22272 102.570136,99.3456939 102.600247,94.5956918 C102.630359,89.8456898 106.501627,86.0174354 111.251669,86.040397 C116.001711,86.0633585 119.835788,89.9288601 119.819977,94.6789313 Z M111.246835,87.0403853 C107.048484,87.0200906 103.626841,90.4037148 103.600227,94.6020309 C103.573613,98.800347 106.952083,102.227079 111.149793,102.260008 C113.173443,102.27361 115.119368,101.481576 116.558308,100.058623 C117.997183,98.6357365 118.8109,96.698896 118.819983,94.6753219 C118.833806,90.4770731 115.445093,87.0606795 111.246835,87.0403853 Z" id="Shape-Copy-2" fill="#FFFFFF" fill-rule="nonzero"></path>
                <path d="M72.4065254,57.0000234 C63.9124045,56.9853742 57.0146811,63.8593396 57.0000235,72.3534605 C56.9853658,80.8475813 63.8593244,87.7453115 72.3534452,87.7599776 C80.8473744,87.7746434 87.7449918,80.9010022 87.7599766,72.4071461 C87.7694557,63.9146446 80.8979323,57.0195499 72.4065254,57.0000234 Z" id="Path" fill="#FFFFFF"></path>
            </g>
        </g>
    </g>
</svg>